<?xml version="1.0" encoding="UTF-8" standalone="no"?>
<!DOCTYPE svg PUBLIC "-//W3C//DTD SVG 1.1//EN" "http://www.w3.org/Graphics/SVG/1.1/DTD/svg11.dtd">
<svg width="100%" height="100%" viewBox="0 0 1440 511" version="1.1" xmlns="http://www.w3.org/2000/svg" xmlns:xlink="http://www.w3.org/1999/xlink" xml:space="preserve" xmlns:serif="http://www.serif.com/" style="fill-rule:evenodd;clip-rule:evenodd;stroke-linejoin:round;stroke-miterlimit:2;">
    <rect id="Artboard1" x="0" y="0" width="1440" height="900" style="fill:none;"/>
    <g id="Artboard11" serif:id="Artboard1">
        <g transform="matrix(11.4284,0,0,11.4284,-295.324,-232.834)">
            <g opacity="0.75">
                <g transform="matrix(1.80128,0,0,1.80128,-28.4635,-99.5723)">
                    <path d="M30.148,69.953C34.436,68.123 41.358,66.33 51.46,66.62C57.16,66.79 62.6,68.02 68.38,69.34C77.142,71.291 86.783,73.473 100.099,72.825L100.099,75.061C98.528,75.14 96.954,75.182 95.38,75.19C84.23,75.19 75.71,73.27 67.86,71.47C62.2,70.19 56.86,68.97 51.36,68.82C40.939,68.503 34.058,70.574 30.148,72.365L30.148,69.953Z" style="fill:white;"/>
                </g>
            </g>
        </g>
        <g transform="matrix(11.4284,0,0,11.4284,-295.324,-232.834)">
            <g opacity="0.55">
                <g transform="matrix(0.0875012,0,0,0.0875012,25.8412,20.3733)">
                    <path d="M0,171.185C212.928,105.454 438.779,92.837 657.764,134.448C796.369,160.482 928.295,214.261 1045.6,292.547C1053.84,297.487 1293.05,436.936 1440,456.78L1440,495.364C1265.5,473.387 1050.34,340.512 1050.13,340.512C1031.6,328.984 1013.28,317.456 994.136,305.928C889.051,240.213 772.582,194.756 650.764,171.914C436.091,131.909 208.425,145.949 0,211.097L0,171.185Z" style="fill:white;"/>
                </g>
            </g>
        </g>
    </g>
</svg>
