<?xml version="1.0" encoding="UTF-8" standalone="no"?>
<!DOCTYPE svg PUBLIC "-//W3C//DTD SVG 1.1//EN" "http://www.w3.org/Graphics/SVG/1.1/DTD/svg11.dtd">
<svg width="100%" height="100%" viewBox="0 0 313 83" version="1.1" xmlns="http://www.w3.org/2000/svg" xmlns:xlink="http://www.w3.org/1999/xlink" xml:space="preserve" xmlns:serif="http://www.serif.com/" style="fill-rule:evenodd;clip-rule:evenodd;stroke-linejoin:round;stroke-miterlimit:2;">
    <g transform="matrix(1,0,0,1,-28,-22)">
        <g>
            <g>
                <path d="M146.19,68.24L152.68,68.24L152.68,61.88C152.68,61.617 152.897,61.4 153.16,61.4L160.07,61.4C160.333,61.4 160.55,61.617 160.55,61.88L160.55,68.24L164.71,68.24L164.71,75.09L160.55,75.09L160.55,81.09C160.55,81.353 160.333,81.57 160.07,81.57L153.16,81.57C152.897,81.57 152.68,81.353 152.68,81.09L152.68,75.09L135.45,75.09C135.189,75.087 134.976,74.871 134.976,74.61C134.976,74.541 134.991,74.473 135.02,74.41L148.57,46L156,46C156.001,46 156.002,46 156.004,46C156.267,46 156.484,46.217 156.484,46.48C156.484,46.549 156.469,46.617 156.44,46.68L146.19,68.24Z" style="fill:rgb(33,28,54);fill-rule:nonzero;"/>
                <path d="M174.19,46.5C174.19,46.5 174.19,46.5 174.19,46.5C174.19,46.242 174.402,46.03 174.66,46.03C174.663,46.03 174.667,46.03 174.67,46.03L189.31,46.03C196.66,46.03 201.48,49.47 201.48,57.84C201.48,63.63 199.2,67.13 195.34,68.7L202,81.53L192.87,81.53L187.08,69.72L182.08,69.72L182.08,81.53L174.22,81.53L174.19,46.5ZM182.05,62.87L189.05,62.87C191.69,62.87 193.37,61.65 193.37,57.87C193.37,54.09 191.64,52.87 189.05,52.87L182.05,52.87L182.05,62.87Z" style="fill:rgb(33,28,54);fill-rule:nonzero;"/>
                <rect x="206" y="46" width="7.86" height="35.5" style="fill:rgb(33,28,54);fill-rule:nonzero;"/>
                <path d="M217.05,46L225.57,46L233.57,71.71L241.65,46L249.42,46L237.8,81.53L228.67,81.53L217.05,46Z" style="fill:rgb(33,28,54);fill-rule:nonzero;"/>
                <path d="M253.16,46L277.44,46L277.44,52.36C277.44,52.623 277.223,52.84 276.96,52.84L260.55,52.84L260.55,60.3L274.42,60.3C274.681,60.305 274.895,60.519 274.9,60.78L274.9,66.7C274.895,66.961 274.681,67.175 274.42,67.18L260.55,67.18L260.55,74.69L277,74.69C277.263,74.69 277.48,74.907 277.48,75.17L277.48,81.53L252.68,81.53L252.68,46.53C252.678,46.513 252.677,46.497 252.677,46.48C252.677,46.217 252.894,46 253.157,46C253.158,46 253.159,46 253.16,46Z" style="fill:rgb(33,28,54);fill-rule:nonzero;"/>
                <path d="M281.81,46.5C281.815,46.24 282.03,46.03 282.29,46.03L296.93,46.03C304.28,46.03 309.1,49.47 309.1,57.84C309.1,63.63 306.82,67.13 302.97,68.7L309.61,81.53L300.48,81.53L294.7,69.72L289.7,69.72L289.7,81.53L281.83,81.53L281.81,46.5ZM289.68,62.87L296.68,62.87C299.32,62.87 301,61.65 301,57.87C301,54.09 299.27,52.87 296.68,52.87L289.68,52.87L289.68,62.87Z" style="fill:rgb(33,28,54);fill-rule:nonzero;"/>
                <path d="M328.44,67.89L322.61,66.89C316.52,65.83 312.87,62.33 312.87,56.75C312.87,49.19 318.09,45.54 326.51,45.54C334.93,45.54 340.16,49.19 340.16,56.34L340.16,57.2L332.29,57.2L332.29,56.34C332.29,53.7 330.16,52.34 326.51,52.34C322.86,52.34 321,53.43 321,56.17C321,58.05 322.47,59.32 324.61,59.67L330.44,60.67C336.83,61.78 340.18,65.23 340.18,70.76C340.18,78.37 334.95,82.02 326.53,82.02C318.11,82.02 312.89,78.37 312.89,71.22L312.89,70.35L320.75,70.35L320.75,71.22C320.75,73.85 322.88,75.22 326.53,75.22C330.18,75.22 332.06,74.22 332.06,71.37C332,69.41 330.57,68.24 328.44,67.89Z" style="fill:rgb(33,28,54);fill-rule:nonzero;"/>
                <circle cx="69.53" cy="63.78" r="41.19" style="fill:white;"/>
                <path d="M47.46,60.06C54.07,59.41 61.28,60.26 68.92,61.16C82.68,62.78 96.92,64.45 110.32,58.08C107.612,37.709 90.049,22.327 69.499,22.327C46.908,22.327 28.319,40.916 28.319,63.507C28.319,63.595 28.319,63.682 28.32,63.77C28.32,64.31 28.32,64.83 28.38,65.36C34.362,62.442 40.83,60.645 47.46,60.06Z" style="fill:rgb(0,71,187);fill-rule:nonzero;"/>
                <path d="M68.59,64C61.11,63.11 54.04,62.28 47.74,62.9C41.075,63.481 34.591,65.374 28.66,68.47C28.73,69.13 28.79,69.8 28.91,70.47C29.01,71.222 29.157,71.966 29.35,72.7C29.488,73.477 29.672,74.245 29.9,75C30.06,75.61 30.24,76.22 30.46,76.82C31.421,79.723 32.702,82.51 34.28,85.13C34.86,86.13 35.48,87.02 36.16,87.93C43.889,98.64 56.32,104.999 69.528,104.999C81.469,104.999 92.838,99.801 100.65,90.77C101.158,90.209 101.632,89.618 102.07,89C104.274,86.178 106.096,83.078 107.49,79.78C107.82,78.99 108.13,78.21 108.4,77.4C108.77,76.4 109.11,75.27 109.4,74.17C109.6,73.41 109.79,72.65 109.94,71.87C110.476,69.197 110.744,66.477 110.74,63.75C110.74,62.85 110.74,61.95 110.64,61.06C96.65,67.3 81.81,65.57 68.59,64Z" style="fill:rgb(0,71,187);fill-rule:nonzero;"/>
            </g>
            <g opacity="0.75">
                <path d="M109.92,71.89C109.77,72.67 109.58,73.43 109.38,74.19C104.741,74.833 100.064,75.167 95.38,75.19C84.23,75.19 75.71,73.27 67.86,71.47C62.2,70.19 56.86,68.97 51.36,68.82C40.2,68.48 33.1,70.88 29.36,72.74C29.167,72.006 29.02,71.262 28.92,70.51C33.06,68.51 40.33,66.3 51.46,66.62C57.16,66.79 62.6,68.02 68.38,69.34C79.16,71.74 91.27,74.49 109.92,71.89Z" style="fill:white;fill-rule:nonzero;"/>
            </g>
            <g opacity="0.35">
                <path d="M108.4,77.42C108.13,78.23 107.82,79.01 107.49,79.8C99.509,79.825 91.556,80.744 83.78,82.54L81.23,83.15C78.08,83.93 75.14,84.78 72.31,85.59C64.74,87.77 57.94,89.71 50.18,89.71C47.499,89.702 44.823,89.471 42.18,89.02C39.98,88.65 37.97,88.26 36.18,87.9C35.5,86.99 34.88,86.06 34.3,85.1C36.67,85.6 39.43,86.15 42.61,86.69C53.43,88.55 61.9,86.13 71.69,83.32C73.87,82.7 76.1,82.05 78.46,81.44C79.27,81.22 80.11,81 80.96,80.8C89.925,78.51 99.147,77.374 108.4,77.42Z" style="fill:white;fill-rule:nonzero;"/>
            </g>
            <g opacity="0.55">
                <path d="M102.07,89C101.631,89.601 101.157,90.175 100.65,90.72C91.84,89.72 86.65,86.5 81.23,83.13L81.16,83.13C80.26,82.57 79.37,82.01 78.44,81.45C73.335,78.258 67.678,76.05 61.76,74.94C51.332,72.997 40.585,73.635 30.46,76.8C30.24,76.2 30.06,75.59 29.9,74.98C40.316,71.722 51.378,71.083 62.1,73.12C68.833,74.385 75.242,76.997 80.94,80.8C81.34,81.04 81.75,81.28 82.14,81.53L83.78,82.53C88.72,85.55 93.79,88.26 102.07,89Z" style="fill:white;fill-rule:nonzero;"/>
            </g>
        </g>
    </g>
</svg>
