<?xml version="1.0" encoding="UTF-8" standalone="no"?>
<!DOCTYPE svg PUBLIC "-//W3C//DTD SVG 1.1//EN" "http://www.w3.org/Graphics/SVG/1.1/DTD/svg11.dtd">
<svg width="100%" height="100%" viewBox="0 0 1440 713" version="1.1" xmlns="http://www.w3.org/2000/svg" xmlns:xlink="http://www.w3.org/1999/xlink" xml:space="preserve" xmlns:serif="http://www.serif.com/" style="fill-rule:evenodd;clip-rule:evenodd;stroke-linejoin:round;stroke-miterlimit:2;">
    <g transform="matrix(1,0,0,1,0,-187)">
        <rect id="Artboard1" x="0" y="0" width="1440" height="900" style="fill:none;"/>
        <clipPath id="_clip1">
            <rect id="Artboard11" serif:id="Artboard1" x="0" y="0" width="1440" height="900"/>
        </clipPath>
        <g clip-path="url(#_clip1)">
            <g transform="matrix(2.09727,4.93038e-32,0,2.10397,-200.184,-666.143)">
                <path d="M875.917,587.592C859.322,639.587 833.49,687.474 800.35,729.324C801.206,728.168 802.049,727.003 802.881,725.829C826.872,695.109 846.711,661.361 861.885,625.457C865.477,616.857 868.852,608.365 871.792,599.547C873.211,595.712 874.589,591.701 875.917,587.592ZM21.621,588.415C22.159,590.026 22.719,591.633 23.306,593.233C26.818,603.843 30.723,614.311 35.013,624.618C30.049,612.798 25.578,600.724 21.621,588.415ZM890.424,374.127C893.133,389.721 895.036,405.595 896.086,421.704C743.812,489.587 582.294,470.758 438.404,453.67C356.974,443.981 280.007,434.945 211.423,441.695C138.868,448.021 68.274,468.629 3.711,502.332C4.473,509.517 5.126,516.811 6.432,524.105C7.525,532.288 9.125,540.396 11.222,548.381C12.729,556.837 14.728,565.197 17.21,573.42C17.842,575.83 18.503,578.24 19.203,580.644C8.288,544.414 1.838,506.259 0.492,466.822C0.543,467.372 0.6,467.923 0.662,468.475C65.788,436.704 136.193,417.147 208.375,410.777C280.334,403.701 358.825,412.954 441.997,422.752C591.793,440.388 746.816,458.568 892.693,389.222C892.021,384.166 891.265,379.138 890.424,374.127Z" style="fill:white;"/>
            </g>
            <g transform="matrix(22.8317,-3.9443e-31,0,22.9046,-846.759,-1177.53)">
                <path d="M109.92,71.89C109.77,72.67 109.58,73.43 109.38,74.19C104.741,74.833 100.064,75.167 95.38,75.19C84.23,75.19 75.71,73.27 67.86,71.47C62.2,70.19 56.86,68.97 51.36,68.82C40.2,68.48 33.1,70.88 29.36,72.74C29.167,72.006 29.02,71.262 28.92,70.51C33.06,68.51 40.33,66.3 51.46,66.62C57.16,66.79 62.6,68.02 68.38,69.34C79.16,71.74 91.27,74.49 109.92,71.89Z" style="fill:white;fill-rule:nonzero;"/>
            </g>
            <g transform="matrix(22.8317,-3.9443e-31,0,22.9046,-846.759,-1177.53)">
                <path d="M108.4,77.42C108.13,78.23 107.82,79.01 107.49,79.8C99.509,79.825 91.556,80.744 83.78,82.54L81.23,83.15C78.08,83.93 75.14,84.78 72.31,85.59C64.74,87.77 57.94,89.71 50.18,89.71C47.499,89.702 44.823,89.471 42.18,89.02C39.98,88.65 37.97,88.26 36.18,87.9C35.5,86.99 34.88,86.06 34.3,85.1C36.67,85.6 39.43,86.15 42.61,86.69C53.43,88.55 61.9,86.13 71.69,83.32C73.87,82.7 76.1,82.05 78.46,81.44C79.27,81.22 80.11,81 80.96,80.8C89.925,78.51 99.147,77.374 108.4,77.42Z" style="fill:white;fill-rule:nonzero;"/>
            </g>
            <g transform="matrix(22.8317,-3.9443e-31,0,22.9046,-846.759,-1177.53)">
                <path d="M102.07,89C101.631,89.601 101.157,90.175 100.65,90.72C91.84,89.72 86.65,86.5 81.23,83.13L81.16,83.13C80.26,82.57 79.37,82.01 78.44,81.45C73.335,78.258 67.678,76.05 61.76,74.94C51.332,72.997 40.585,73.635 30.46,76.8C30.24,76.2 30.06,75.59 29.9,74.98C40.316,71.722 51.378,71.083 62.1,73.12C68.833,74.385 75.242,76.997 80.94,80.8C81.34,81.04 81.75,81.28 82.14,81.53L83.78,82.53C88.72,85.55 93.79,88.26 102.07,89Z" style="fill:white;fill-rule:nonzero;"/>
            </g>
        </g>
    </g>
</svg>
