<?xml version="1.0" encoding="UTF-8" standalone="no"?>
<!DOCTYPE svg PUBLIC "-//W3C//DTD SVG 1.1//EN" "http://www.w3.org/Graphics/SVG/1.1/DTD/svg11.dtd">
<svg width="100%" height="100%" viewBox="0 0 1440 900" version="1.1" xmlns="http://www.w3.org/2000/svg" xmlns:xlink="http://www.w3.org/1999/xlink" xml:space="preserve" xmlns:serif="http://www.serif.com/" style="fill-rule:evenodd;clip-rule:evenodd;stroke-linejoin:round;stroke-miterlimit:2;">
    <rect id="Artboard1" x="0" y="0" width="1440" height="900" style="fill:none;"/>
    <clipPath id="_clip1">
        <rect id="Artboard11" serif:id="Artboard1" x="0" y="0" width="1440" height="900"/>
    </clipPath>
    <g clip-path="url(#_clip1)">
        <g transform="matrix(3.82861e-17,-0.62526,1.60511,9.82845e-17,-4.59713,900.374)">
            <path d="M70.857,900C105.92,798.083 198.006,731.854 299.751,667.216C313.961,691.12 326.671,715.142 337.875,739.262L344.431,753.779C365.677,802.206 380.859,851.004 389.918,900C389.918,900 70.857,900 70.857,900Z" style="fill:url(#_Linear2);"/>
        </g>
        <g transform="matrix(3.82861e-17,-0.62526,1.60511,9.82845e-17,-4.59713,900.374)">
            <path d="M185.029,2.864L1440,2.864L1440,900L477.217,900C460.396,807.906 422.328,716.521 363.391,626.932C356.065,614.842 348.005,602.893 339.946,591.371C317.601,557.802 293.79,526.081 271.078,495.072C168.142,355.815 79.492,235.334 147.628,81.426C160.104,52.897 172.726,26.745 185.029,2.864Z" style="fill:url(#_Linear3);"/>
        </g>
        <g transform="matrix(2.09727,4.93038e-32,0,2.10397,-200.184,-666.143)">
            <path d="M875.917,587.592C859.322,639.587 833.49,687.474 800.35,729.324C801.206,728.168 802.049,727.003 802.881,725.829C826.872,695.109 846.711,661.361 861.885,625.457C865.477,616.857 868.852,608.365 871.792,599.547C873.211,595.712 874.589,591.701 875.917,587.592ZM21.621,588.415C22.159,590.026 22.719,591.633 23.306,593.233C26.818,603.843 30.723,614.311 35.013,624.618C30.049,612.798 25.578,600.724 21.621,588.415ZM890.424,374.127C893.133,389.721 895.036,405.595 896.086,421.704C743.812,489.587 582.294,470.758 438.404,453.67C356.974,443.981 280.007,434.945 211.423,441.695C138.868,448.021 68.274,468.629 3.711,502.332C4.473,509.517 5.126,516.811 6.432,524.105C7.525,532.288 9.125,540.396 11.222,548.381C12.729,556.837 14.728,565.197 17.21,573.42C17.842,575.83 18.503,578.24 19.203,580.644C8.288,544.414 1.838,506.259 0.492,466.822C0.543,467.372 0.6,467.923 0.662,468.475C65.788,436.704 136.193,417.147 208.375,410.777C280.334,403.701 358.825,412.954 441.997,422.752C591.793,440.388 746.816,458.568 892.693,389.222C892.021,384.166 891.265,379.138 890.424,374.127Z" style="fill:white;"/>
        </g>
        <g transform="matrix(22.8317,-3.9443e-31,0,22.9046,-846.759,-1177.53)">
            <path d="M109.92,71.89C109.77,72.67 109.58,73.43 109.38,74.19C104.741,74.833 100.064,75.167 95.38,75.19C84.23,75.19 75.71,73.27 67.86,71.47C62.2,70.19 56.86,68.97 51.36,68.82C40.2,68.48 33.1,70.88 29.36,72.74C29.167,72.006 29.02,71.262 28.92,70.51C33.06,68.51 40.33,66.3 51.46,66.62C57.16,66.79 62.6,68.02 68.38,69.34C79.16,71.74 91.27,74.49 109.92,71.89Z" style="fill:white;fill-rule:nonzero;"/>
        </g>
        <g transform="matrix(22.8317,-3.9443e-31,0,22.9046,-846.759,-1177.53)">
            <path d="M37.087,88.08L36.18,87.9C35.5,86.99 34.88,86.06 34.3,85.1C35.175,85.285 36.104,85.476 37.087,85.669L37.087,88.08Z" style="fill:white;"/>
        </g>
        <g transform="matrix(22.8317,-3.9443e-31,0,22.9046,-846.759,-1177.53)">
            <path d="M100.157,77.693C102.897,77.497 105.647,77.406 108.4,77.42C108.13,78.23 107.82,79.01 107.49,79.8C105.041,79.808 102.596,79.9 100.157,80.076L100.157,77.693Z" style="fill:white;"/>
        </g>
        <g transform="matrix(22.8317,-3.9443e-31,0,22.9046,-846.759,-1177.53)">
            <path d="M37.087,88.08L37.087,85.669C38.766,86.005 40.604,86.349 42.61,86.69C53.43,88.55 61.9,86.13 71.69,83.32C73.862,82.702 76.084,82.055 78.435,81.447L78.44,81.45C79.37,82.01 80.26,82.57 81.16,83.13L81.23,83.13L81.253,83.144L81.23,83.15C78.08,83.93 75.14,84.78 72.31,85.59C67.64,86.935 63.263,88.188 58.773,88.951L58.596,88.981L57.912,89.091C57.684,89.125 57.455,89.159 57.227,89.194L56.538,89.287L56.426,89.301C54.393,89.562 52.323,89.71 50.18,89.71C47.499,89.702 44.823,89.471 42.18,89.02C40.344,88.711 38.641,88.389 37.087,88.08Z" style="fill:white;"/>
        </g>
        <g transform="matrix(22.8317,-3.9443e-31,0,22.9046,-846.759,-1177.53)">
            <path d="M100.157,80.076C100.157,80.076 99.125,80.155 99.125,80.155L98.094,80.244L98.092,80.244L97.688,80.283L97.063,80.343L97.061,80.344L96.633,80.389L96.034,80.452L96.031,80.453L95.59,80.504L95.006,80.572L95.002,80.572L94.552,80.629L93.979,80.701L93.975,80.701L93.513,80.764L92.953,80.84L92.948,80.84L92.472,80.91L91.929,80.989L91.923,80.989L91.426,81.067L90.906,81.148L90.9,81.149L90.373,81.236L89.885,81.316L89.878,81.318L89.311,81.417L88.865,81.495L88.857,81.497L88.238,81.611L87.847,81.684L87.838,81.685L87.153,81.819L86.83,81.882L86.821,81.884L86.051,82.042L85.816,82.091L85.805,82.093L84.932,82.281L84.792,82.312L83.792,82.537C83.792,82.537 83.78,82.53 83.78,82.53L82.14,81.53C81.752,81.281 81.344,81.042 80.946,80.803L80.96,80.8C87.258,79.191 93.683,78.152 100.157,77.693L100.157,80.076Z" style="fill:white;"/>
        </g>
        <g transform="matrix(22.8317,-3.9443e-31,0,22.9046,-846.759,-1177.53)">
            <path d="M56.426,89.301C54.393,89.562 52.323,89.71 50.18,89.71C52.323,89.71 54.393,89.562 56.426,89.301Z" style="fill:white;"/>
        </g>
        <g transform="matrix(22.8317,-3.9443e-31,0,22.9046,-846.759,-1177.53)">
            <path d="M37.087,88.08C38.641,88.389 40.344,88.711 42.18,89.02C44.823,89.471 47.499,89.702 50.18,89.71C47.499,89.702 44.823,89.471 42.18,89.02C40.344,88.711 38.641,88.389 37.087,88.08Z" style="fill:white;"/>
        </g>
        <g transform="matrix(22.8317,-3.9443e-31,0,22.9046,-846.759,-1177.53)">
            <path d="M57.912,89.091C57.684,89.125 57.455,89.159 57.227,89.194C57.455,89.159 57.684,89.125 57.912,89.091Z" style="fill:white;"/>
        </g>
        <g transform="matrix(22.8317,-3.9443e-31,0,22.9046,-846.759,-1177.53)">
            <path d="M81.253,83.144L81.23,83.15C78.08,83.93 75.14,84.78 72.31,85.59C67.64,86.935 63.263,88.188 58.773,88.951C63.263,88.188 67.64,86.935 72.31,85.59C75.14,84.78 78.08,83.93 81.23,83.15L81.253,83.144Z" style="fill:white;"/>
        </g>
        <g transform="matrix(22.8317,-3.9443e-31,0,22.9046,-846.759,-1177.53)">
            <path d="M84.802,82.309L83.792,82.537L84.792,82.312L84.802,82.309Z" style="fill:white;"/>
        </g>
        <g transform="matrix(22.8317,-3.9443e-31,0,22.9046,-846.759,-1177.53)">
            <path d="M85.814,82.091L84.932,82.281L85.805,82.093L85.814,82.091Z" style="fill:white;"/>
        </g>
        <g transform="matrix(22.8317,-3.9443e-31,0,22.9046,-846.759,-1177.53)">
            <path d="M86.828,81.883L86.051,82.042L86.821,81.884L86.828,81.883Z" style="fill:white;"/>
        </g>
        <g transform="matrix(22.8317,-3.9443e-31,0,22.9046,-846.759,-1177.53)">
            <path d="M87.844,81.684L87.153,81.819L87.838,81.685L87.844,81.684Z" style="fill:white;"/>
        </g>
        <g transform="matrix(22.8317,-3.9443e-31,0,22.9046,-846.759,-1177.53)">
            <path d="M88.862,81.496L88.238,81.611L88.857,81.497L88.862,81.496Z" style="fill:white;"/>
        </g>
        <g transform="matrix(22.8317,-3.9443e-31,0,22.9046,-846.759,-1177.53)">
            <path d="M89.882,81.317L89.311,81.417L89.878,81.318L89.882,81.317Z" style="fill:white;"/>
        </g>
        <g transform="matrix(22.8317,-3.9443e-31,0,22.9046,-846.759,-1177.53)">
            <path d="M90.903,81.148L90.373,81.236L90.9,81.149L90.903,81.148Z" style="fill:white;"/>
        </g>
        <g transform="matrix(22.8317,-3.9443e-31,0,22.9046,-846.759,-1177.53)">
            <path d="M91.926,80.989L91.426,81.067L91.923,80.989L91.926,80.989Z" style="fill:white;"/>
        </g>
        <g transform="matrix(22.8317,-3.9443e-31,0,22.9046,-846.759,-1177.53)">
            <path d="M92.951,80.84L92.472,80.91L92.948,80.84L92.951,80.84Z" style="fill:white;"/>
        </g>
        <g transform="matrix(22.8317,-3.9443e-31,0,22.9046,-846.759,-1177.53)">
            <path d="M93.977,80.701L93.513,80.764L93.975,80.701L93.977,80.701Z" style="fill:white;"/>
        </g>
        <g transform="matrix(22.8317,-3.9443e-31,0,22.9046,-846.759,-1177.53)">
            <path d="M95.004,80.572L94.552,80.629L95.002,80.572L95.004,80.572Z" style="fill:white;"/>
        </g>
        <g transform="matrix(22.8317,-3.9443e-31,0,22.9046,-846.759,-1177.53)">
            <path d="M96.033,80.453L95.59,80.504L96.031,80.453L96.033,80.453Z" style="fill:white;"/>
        </g>
        <g transform="matrix(22.8317,-3.9443e-31,0,22.9046,-846.759,-1177.53)">
            <path d="M97.062,80.343L96.633,80.389L97.061,80.344L97.062,80.343Z" style="fill:white;"/>
        </g>
        <g transform="matrix(22.8317,-3.9443e-31,0,22.9046,-846.759,-1177.53)">
            <path d="M98.093,80.244L97.688,80.283L98.092,80.244L98.093,80.244Z" style="fill:white;"/>
        </g>
        <g transform="matrix(22.8317,-3.9443e-31,0,22.9046,-846.759,-1177.53)">
            <path d="M99.125,80.155L98.784,80.184L99.125,80.155Z" style="fill:white;"/>
        </g>
        <g transform="matrix(22.8317,-3.9443e-31,0,22.9046,-846.759,-1177.53)">
            <path d="M100.157,80.076C100.157,80.076 100.157,80.076 100.157,80.076Z" style="fill:white;"/>
        </g>
        <g transform="matrix(22.8317,-3.9443e-31,0,22.9046,-846.759,-1177.53)">
            <path d="M100.157,88.786C100.775,88.87 101.413,88.941 102.07,89C101.631,89.601 101.157,90.175 100.65,90.72L100.157,90.659L100.157,88.786Z" style="fill:white;"/>
        </g>
        <g transform="matrix(22.8317,-3.9443e-31,0,22.9046,-846.759,-1177.53)">
            <path d="M78.435,81.447C73.332,78.256 67.676,76.049 61.76,74.94C51.332,72.997 40.585,73.635 30.46,76.8C30.24,76.2 30.06,75.59 29.9,74.98C40.316,71.722 51.378,71.083 62.1,73.12C68.833,74.385 75.242,76.997 80.94,80.8L80.946,80.803C80.101,81.002 79.265,81.221 78.46,81.44L78.435,81.447Z" style="fill:white;"/>
        </g>
        <g transform="matrix(22.8317,-3.9443e-31,0,22.9046,-846.759,-1177.53)">
            <path d="M84.646,83.055C88.927,85.623 93.439,87.888 100.157,88.786L100.157,90.659C91.658,89.6 86.563,86.446 81.253,83.144L83.78,82.54L83.792,82.537L84.646,83.055Z" style="fill:white;"/>
        </g>
        <g transform="matrix(22.8317,-3.9443e-31,0,22.9046,-846.759,-1177.53)">
            <path d="M81.253,83.144L81.23,83.13L81.16,83.13C80.26,82.57 79.37,82.01 78.44,81.45L78.435,81.447L78.46,81.44C79.265,81.221 80.101,81.002 80.946,80.803C81.344,81.042 81.752,81.281 82.14,81.53L83.78,82.53L83.792,82.537L83.78,82.54L81.253,83.144Z" style="fill:white;"/>
        </g>
        <g transform="matrix(22.8317,-3.9443e-31,0,22.9046,-846.759,-1177.53)">
            <path d="M81.253,83.144L83.78,82.54L81.253,83.144Z" style="fill:white;"/>
        </g>
    </g>
    <defs>
        <linearGradient id="_Linear2" x1="0" y1="0" x2="1" y2="0" gradientUnits="userSpaceOnUse" gradientTransform="matrix(1440,0,0,897.136,0,451.432)"><stop offset="0" style="stop-color:rgb(0,71,187);stop-opacity:0.59"/><stop offset="1" style="stop-color:white;stop-opacity:0.59"/></linearGradient>
        <linearGradient id="_Linear3" x1="0" y1="0" x2="1" y2="0" gradientUnits="userSpaceOnUse" gradientTransform="matrix(1440,0,0,897.136,0,451.432)"><stop offset="0" style="stop-color:rgb(0,71,187);stop-opacity:0.59"/><stop offset="1" style="stop-color:white;stop-opacity:0.59"/></linearGradient>
    </defs>
</svg>
