<svg id="Layer_2" data-name="Layer 2" xmlns="http://www.w3.org/2000/svg" viewBox="0 0 368.5 127.56"><defs><style>.cls-1{fill:#211c36;}.cls-2{fill:#fff;}.cls-3{fill:#0047bb;}.cls-4{opacity:0.75;}.cls-5{opacity:0.35;}.cls-6{opacity:0.55;}</style></defs><path class="cls-1" d="M146.19,68.24h6.49V61.88a.48.48,0,0,1,.48-.48h6.91a.48.48,0,0,1,.48.48v6.36h4.16v6.85h-4.16v6a.48.48,0,0,1-.48.48h-6.91a.48.48,0,0,1-.48-.48v-6H135.45a.48.48,0,0,1-.43-.68L148.57,46H156a.48.48,0,0,1,.44.68Z"/><path class="cls-1" d="M174.19,46.5a.47.47,0,0,1,.48-.47h14.64c7.35,0,12.17,3.44,12.17,11.81,0,5.79-2.28,9.29-6.14,10.86L202,81.53h-9.13l-5.79-11.81h-5V81.53h-7.86Zm7.86,16.37h7c2.64,0,4.32-1.22,4.32-5s-1.73-5-4.32-5h-7Z"/><path class="cls-1" d="M206,46h7.86v35.5H206Z"/><path class="cls-1" d="M217.05,46h8.52l8,25.71L241.65,46h7.77L237.8,81.53h-9.13Z"/><path class="cls-1" d="M253.16,46h24.28v6.36a.48.48,0,0,1-.48.48H260.55v7.46h13.87a.49.49,0,0,1,.48.48V66.7a.49.49,0,0,1-.48.48H260.55v7.51H277a.48.48,0,0,1,.48.48v6.36H252.68v-35A.48.48,0,0,1,253.16,46Z"/><path class="cls-1" d="M281.81,46.5a.48.48,0,0,1,.48-.47h14.64c7.35,0,12.17,3.44,12.17,11.81,0,5.79-2.28,9.29-6.13,10.86l6.64,12.83h-9.13L294.7,69.72h-5V81.53h-7.87Zm7.87,16.37h7c2.64,0,4.32-1.22,4.32-5s-1.73-5-4.32-5h-7Z"/><path class="cls-1" d="M328.44,67.89l-5.83-1c-6.09-1.06-9.74-4.56-9.74-10.14,0-7.56,5.22-11.21,13.64-11.21s13.65,3.65,13.65,10.8v.86h-7.87v-.86c0-2.64-2.13-4-5.78-4S321,53.43,321,56.17c0,1.88,1.47,3.15,3.61,3.5l5.83,1c6.39,1.11,9.74,4.56,9.74,10.09,0,7.61-5.23,11.26-13.65,11.26s-13.64-3.65-13.64-10.8v-.87h7.86v.87c0,2.63,2.13,4,5.78,4s5.53-1,5.53-3.85C332,69.41,330.57,68.24,328.44,67.89Z"/><circle class="cls-2" cx="69.53" cy="63.78" r="41.19"/><path class="cls-3" d="M47.46,60.06c6.61-.65,13.82.2,21.46,1.1,13.76,1.62,28,3.29,41.4-3.08a41.18,41.18,0,0,0-82,5.69c0,.54,0,1.06.06,1.59A54.43,54.43,0,0,1,47.46,60.06Z"/><path class="cls-3" d="M68.59,64c-7.48-.89-14.55-1.72-20.85-1.1a50.76,50.76,0,0,0-19.08,5.57c.07.66.13,1.33.25,2a18.32,18.32,0,0,0,.44,2.23A20.26,20.26,0,0,0,29.9,75c.16.61.34,1.22.56,1.82a41.2,41.2,0,0,0,3.82,8.31c.58,1,1.2,1.89,1.88,2.8a41.15,41.15,0,0,0,64.49,2.84A19,19,0,0,0,102.07,89a40.76,40.76,0,0,0,5.42-9.22c.33-.79.64-1.57.91-2.38.37-1,.71-2.13,1-3.23.2-.76.39-1.52.54-2.3a41,41,0,0,0,.8-8.12c0-.9,0-1.8-.1-2.69C96.65,67.3,81.81,65.57,68.59,64Z"/><g class="cls-4"><path class="cls-2" d="M109.92,71.89c-.15.78-.34,1.54-.54,2.3a105.64,105.64,0,0,1-14,1c-11.15,0-19.67-1.92-27.52-3.72-5.66-1.28-11-2.5-16.5-2.65-11.16-.34-18.26,2.06-22,3.92a18.32,18.32,0,0,1-.44-2.23c4.14-2,11.41-4.21,22.54-3.89,5.7.17,11.14,1.4,16.92,2.72C79.16,71.74,91.27,74.49,109.92,71.89Z"/></g><g class="cls-5"><path class="cls-2" d="M108.4,77.42c-.27.81-.58,1.59-.91,2.38a106.86,106.86,0,0,0-23.71,2.74l-2.55.61c-3.15.78-6.09,1.63-8.92,2.44-7.57,2.18-14.37,4.12-22.13,4.12a48.42,48.42,0,0,1-8-.69c-2.2-.37-4.21-.76-6-1.12-.68-.91-1.3-1.84-1.88-2.8,2.37.5,5.13,1.05,8.31,1.59,10.82,1.86,19.29-.56,29.08-3.37,2.18-.62,4.41-1.27,6.77-1.88.81-.22,1.65-.44,2.5-.64A108.68,108.68,0,0,1,108.4,77.42Z"/></g><g class="cls-6"><path class="cls-2" d="M102.07,89a19,19,0,0,1-1.42,1.72c-8.81-1-14-4.22-19.42-7.59,0,0-.06,0-.07,0-.9-.56-1.79-1.12-2.72-1.68a48.22,48.22,0,0,0-16.68-6.51,65,65,0,0,0-31.3,1.86c-.22-.6-.4-1.21-.56-1.82a66.36,66.36,0,0,1,32.2-1.86A50.85,50.85,0,0,1,80.94,80.8c.4.24.81.48,1.2.73l1.64,1C88.72,85.55,93.79,88.26,102.07,89Z"/></g></svg>